HIERARCHY
ROOT hip
{
  OFFSET 0 0 0
  CHANNELS 6 Xposition Yposition Zposition Zrotation Yrotation Xrotation
  JOINT abdomen
  {
    OFFSET 0 20.6881 -0.73152
    CHANNELS 3 Zrotation Xrotation Yrotation
    JOINT chest
    {
      OFFSET 0 11.7043 -0.48768
      CHANNELS 3 Zrotation Xrotation Yrotation
      JOINT neck
      {
        OFFSET 0 22.1894 -2.19456
        CHANNELS 3 Zrotation Xrotation Yrotation
        JOINT head
        {
          OFFSET -0.24384 7.07133 1.2192
          CHANNELS 3 Zrotation Xrotation Yrotation
          JOINT leftEye
          {
            OFFSET 4.14528 8.04674 8.04672
            CHANNELS 3 Zrotation Xrotation Yrotation
            End Site
            {
              OFFSET 1 0 0
            }
          }
          JOINT rightEye
          {
            OFFSET -3.6576 8.04674 8.04672
            CHANNELS 3 Zrotation Xrotation Yrotation
            End Site
            {
              OFFSET 1 0 0
            }
          }
        }
      }
      JOINT rCollar
      {
        OFFSET -2.68224 19.2634 -4.8768
        CHANNELS 3 Zrotation Xrotation Yrotation
        JOINT rShldr
        {
          OFFSET -8.77824 -1.95073 1.46304
          CHANNELS 3 Zrotation Xrotation Yrotation
          JOINT rForeArm
          {
            OFFSET -28.1742 -1.7115 0.48768
            CHANNELS 3 Zrotation Xrotation Yrotation
            JOINT rHand
            {
              OFFSET -22.5879 0.773209 7.07136
              CHANNELS 3 Zrotation Xrotation Yrotation
              JOINT rThumb1
              {
                OFFSET -1.2192 -0.487915 3.41376
                CHANNELS 3 Zrotation Xrotation Yrotation
                JOINT rThumb2
                {
                  OFFSET -3.37035 -0.52449 3.41376
                  CHANNELS 3 Zrotation Xrotation Yrotation
                  End Site
                  {
                    OFFSET -1.78271 -1.18214 1.43049
                  }
                }
              }
              JOINT rIndex1
              {
                OFFSET -7.75947 0.938293 5.60832
                CHANNELS 3 Zrotation Xrotation Yrotation
                JOINT rIndex2
                {
                  OFFSET -2.54057 -0.884171 1.56538
                  CHANNELS 3 Zrotation Xrotation Yrotation
                  End Site
                  {
                    OFFSET -1.62519 -0.234802 1.16502
                  }
                }
              }
              JOINT rMid1
              {
                OFFSET -8.24714 1.18213 3.41376
                CHANNELS 3 Zrotation Xrotation Yrotation
                JOINT rMid2
                {
                  OFFSET -3.10165 -0.590103 1.0647
                  CHANNELS 3 Zrotation Xrotation Yrotation
                  End Site
                  {
                    OFFSET -2.48547 -0.328903 0.83742
                  }
                }
              }
              JOINT rRing1
              {
                OFFSET -8.82822 0.546677 1.51678
                CHANNELS 3 Zrotation Xrotation Yrotation
                JOINT rRing2
                {
                  OFFSET -2.60934 -0.819778 -0.0198488
                  CHANNELS 3 Zrotation Xrotation Yrotation
                  End Site
                  {
                    OFFSET -2.33842 -0.294052 0.168128
                  }
                }
              }
              JOINT rPinky1
              {
                OFFSET -8.27202 -0.0477905 -0.4584
                CHANNELS 3 Zrotation Xrotation Yrotation
                JOINT rPinky2
                {
                  OFFSET -1.82734 -0.647385 -0.700984
                  CHANNELS 3 Zrotation Xrotation Yrotation
                  End Site
                  {
                    OFFSET -1.69225 -0.51767 -0.607171
                  }
                }
              }
            }
          }
        }
      }
      JOINT lCollar
      {
        OFFSET 2.68224 19.2634 -4.8768
        CHANNELS 3 Zrotation Xrotation Yrotation
        JOINT lShldr
        {
          OFFSET 8.77824 -1.95073 1.46304
          CHANNELS 3 Zrotation Xrotation Yrotation
          JOINT lForeArm
          {
            OFFSET 28.1742 -1.7115 0.48768
            CHANNELS 3 Zrotation Xrotation Yrotation
            JOINT lHand
            {
              OFFSET 22.5879 0.773209 7.07136
              CHANNELS 3 Zrotation Xrotation Yrotation
              JOINT lThumb1
              {
                OFFSET 1.2192 -0.487915 3.41376
                CHANNELS 3 Zrotation Xrotation Yrotation
                JOINT lThumb2
                {
                  OFFSET 3.37035 -0.52449 3.41376
                  CHANNELS 3 Zrotation Xrotation Yrotation
                  End Site
                  {
                    OFFSET 1.78271 -1.18214 1.43049
                  }
                }
              }
              JOINT lIndex1
              {
                OFFSET 7.75947 0.938293 5.60832
                CHANNELS 3 Zrotation Xrotation Yrotation
                JOINT lIndex2
                {
                  OFFSET 2.54057 -0.884171 1.56538
                  CHANNELS 3 Zrotation Xrotation Yrotation
                  End Site
                  {
                    OFFSET 1.62519 -0.234802 1.16502
                  }
                }
              }
              JOINT lMid1
              {
                OFFSET 8.24714 1.18213 3.41376
                CHANNELS 3 Zrotation Xrotation Yrotation
                JOINT lMid2
                {
                  OFFSET 3.10165 -0.590103 1.0647
                  CHANNELS 3 Zrotation Xrotation Yrotation
                  End Site
                  {
                    OFFSET 2.48547 -0.328903 0.83742
                  }
                }
              }
              JOINT lRing1
              {
                OFFSET 8.82822 0.546677 1.51678
                CHANNELS 3 Zrotation Xrotation Yrotation
                JOINT lRing2
                {
                  OFFSET 2.60934 -0.819778 -0.0198488
                  CHANNELS 3 Zrotation Xrotation Yrotation
                  End Site
                  {
                    OFFSET 2.33842 -0.294052 0.168128
                  }
                }
              }
              JOINT lPinky1
              {
                OFFSET 8.27202 -0.0477905 -0.4584
                CHANNELS 3 Zrotation Xrotation Yrotation
                JOINT lPinky2
                {
                  OFFSET 1.82734 -0.647385 -0.700984
                  CHANNELS 3 Zrotation Xrotation Yrotation
                  End Site
                  {
                    OFFSET 1.69225 -0.51767 -0.607171
                  }
                }
              }
            }
          }
        }
      }
    }
  }
  JOINT rButtock
  {
    OFFSET -8.77824 4.35084 1.2192
    CHANNELS 3 Zrotation Xrotation Yrotation
    JOINT rThigh
    {
      OFFSET 0 -1.70687 -2.19456
      CHANNELS 3 Zrotation Xrotation Yrotation
      JOINT rShin
      {
        OFFSET 0 -36.8199 0.73152
        CHANNELS 3 Zrotation Xrotation Yrotation
        JOINT rFoot
        {
          OFFSET 0.73152 -45.1104 -5.12064
          CHANNELS 3 Zrotation Xrotation Yrotation
          End Site
          {
            OFFSET -1.1221 -3.69964 12.103
          }
        }
      }
    }
  }
  JOINT lButtock
  {
    OFFSET 8.77824 4.35084 1.2192
    CHANNELS 3 Zrotation Xrotation Yrotation
    JOINT lThigh
    {
      OFFSET 0 -1.70687 -2.19456
      CHANNELS 3 Zrotation Xrotation Yrotation
      JOINT lShin
      {
        OFFSET 0 -36.8199 0.73152
        CHANNELS 3 Zrotation Xrotation Yrotation
        JOINT lFoot
        {
          OFFSET -0.73152 -45.1104 -5.12064
          CHANNELS 3 Zrotation Xrotation Yrotation
          End Site
          {
            OFFSET 1.1221 -3.69964 12.103
          }
        }
      }
    }
  }
}
MOTION
Frames:	7
Frame Time:	0.03333
0.0 0.0 0.0 0.0 0.0 0.0 0.0 0.0 0.0 0.0 0.0 0.0 0.0 0.0 0.0 0.0 0.0 0.0 0.0 0.0 0.0 0.0 0.0 0.0 0.0 0.0 0.0 0.0 0.0 0.0 0.0 0.0 0.0 0.0 0.0 0.0 0.0 0.0 0.0 0.0 0.0 0.0 0.0 0.0 0.0 0.0 0.0 0.0 0.0 0.0 0.0 0.0 0.0 0.0 0.0 0.0 0.0 0.0 0.0 0.0 0.0 0.0 0.0 0.0 0.0 0.0 0.0 0.0 0.0 0.0 0.0 0.0 0.0 0.0 0.0 0.0 0.0 0.0 0.0 0.0 0.0 0.0 0.0 0.0 0.0 0.0 0.0 0.0 0.0 0.0 0.0 0.0 0.0 0.0 0.0 0.0 0.0 0.0 0.0 0.0 0.0 0.0 0.0 0.0 0.0 0.0 0.0 0.0 0.0 0.0 0.0 0.0 0.0 0.0 0.0 0.0 0.0 0.0 0.0 0.0 0.0 0.0 0.0 0.0 0.0 0.0 0.0 0.0 0.0 0.0 0.0 0.0
2.0739 67.8175 -0.679 -179.546463 27.98209 179.714557 -4.259282 21.409774 -36.202098 9.158798 -7.677111 34.567147 -4.653147 36.710546 -168.350103 7.329963 42.22963 125.366651 -0.000332 -0.0 0.000399 -0.000332 -0.0 0.000399 -33.839488 -85.665662 -55.256503 -77.034758 -38.669668 -88.208248 -2.951829 -10.781637 -161.001202 -160.084197 12.436889 138.888064 5.435569 -5.421608 -0.581547 11.448847 -21.254266 -13.175119 37.216485 -57.917599 -0.643184 -48.574612 50.599157 39.796125 -36.036498 51.722831 29.832828 -163.093901 -4.756775 143.254359 0.000272 0.06366 0.02123 -154.238665 12.766825 170.10553 -148.243092 22.397163 -144.471959 -44.616662 -49.386662 -44.968877 -2.459451 -18.216326 3.669814 -44.809373 19.352178 -47.630893 -6.594638 -9.612462 -121.992228 11.201397 -9.50659 3.967792 0.442894 0.434795 -0.068616 143.126902 -50.392591 -120.069976 4.707668 7.223958 -2.8537 26.373336 37.402385 -18.819829 169.08795 -33.247665 -145.374941 42.543977 58.27936 -36.550454 0.013487 -1.322973 0.417072 77.326021 78.794919 -90.843517 151.563707 34.842285 147.117091 78.24493 -52.901868 77.404797 -0.005149 0.000817 -0.002575 -55.495894 -49.148744 43.129949 76.004484 16.410286 -170.936595 140.755581 -25.125697 -87.68195 -0.003938 0.001427 -0.003938 28.733738 -23.916852 -0.0 -34.576982 66.845921 85.80151 -86.586929 3.026476 -10.232
3.3235 67.9897 -0.47280000000000005 179.909617 34.174667 179.621728 -3.82634 16.463412 -122.80898 4.509135 7.618079 117.943471 -15.70946 31.268542 -106.788869 31.986505 23.957633 62.440022 -0.002442 0.0 -0.000368 -0.002768 -0.0 0.000601 -155.548476 -3.803992 161.900766 -134.241575 -85.838681 -92.659867 -26.6294 59.911999 -121.595172 -156.564357 12.568855 139.457174 -103.198406 36.331326 60.112401 165.064803 -42.827479 73.271882 -83.732004 42.330834 69.990349 -38.159156 45.205755 22.114315 173.12481 -66.297953 137.61507 -170.590178 -26.244325 143.989245 0.000339 0.063706 0.020055 -154.182904 -65.020107 -178.250027 -150.57981 31.034094 -146.362278 -6.226615 -17.361084 -8.744032 5.825459 24.937086 -6.990799 116.930636 26.596961 -83.753848 177.450243 2.809835 68.978675 11.439827 -22.788914 6.215072 -5.513688 -5.499514 0.587405 173.90832 -80.886922 -111.507557 46.208119 39.653498 -36.317771 -12.991307 -9.73799 3.376924 161.15259 -8.160788 -143.465158 176.810153 -42.23155 -142.389465 0.01474 -1.323133 0.416 -10.907296 -7.440443 0.975793 126.799869 -26.620958 124.513804 -34.486025 74.520601 -0.557301 -0.0 -0.000746 -0.001317 -49.741217 -50.488049 -135.401658 -67.502842 -15.908263 62.787149 73.449145 20.895436 -7.403327 -0.00054 0.00031 -0.00027 23.626497 -20.689583 146.773123 66.933518 -35.289528 171.159202 -147.48286 78.489187 -118.533892
4.6151 67.7197 -0.5724 179.630763 41.47541 -178.952802 -4.648598 13.363506 -143.305856 -1.434529 9.403062 138.186001 -3.132165 16.316724 34.279866 -9.295534 -18.224643 -77.863852 -0.001336 0.0 -0.000742 -0.001336 0.0 -0.000742 4.238829 -44.742691 -8.649062 -99.931256 -35.940817 -158.445228 -172.192869 39.364578 -84.830816 -17.625549 -54.356656 -15.776835 -15.475146 14.198911 4.247772 147.695987 -76.10655 67.639808 -14.227988 19.203902 9.558748 -38.822646 42.796115 26.931574 -165.291423 -21.385359 144.899753 -16.50626 39.987964 13.358501 -145.064758 -3.225368 -178.111714 -155.272324 1.346631 -179.399412 40.001377 85.641191 -0.916014 1.502778 0.343214 -0.931114 159.2218 -48.028669 -170.414021 98.338259 -11.80991 162.564613 -178.435157 -64.766187 82.89061 11.764756 -25.163087 6.6698 0.509226 0.501435 -0.080055 8.635974 9.467094 -7.663941 138.095278 5.496286 -114.616853 89.067415 55.977355 -68.271459 82.84053 61.112497 -74.532156 163.379387 -5.68039 -143.258784 145.099668 -1.520691 178.649317 152.283108 -24.838293 175.376047 148.607426 23.708063 144.778064 14.667644 -29.78864 16.485849 179.996878 75.749093 -0.0 151.188637 11.022031 123.85209 76.067069 -17.907692 123.525696 111.340603 -12.952253 -157.470372 0.004479 -0.001224 0.00224 21.540801 -16.290416 120.815891 73.865129 -14.288809 124.780873 82.516227 11.292681 155.418084
5.6962 67.57469999999999 -0.8876999999999999 177.845123 48.222566 -179.416593 -7.508464 16.470155 1.838507 9.067865 -10.734123 -4.028761 -15.2413 17.620696 -32.830064 23.968961 -7.723515 -6.475693 0.000932 -0.0 -0.001316 0.000302 0.0 0.004348 -152.128443 14.11274 157.555585 -127.340948 -84.875771 -83.573118 -165.527753 -52.646521 -82.311773 -19.735189 -61.291093 -19.891428 178.33818 -19.018188 88.988242 -90.957094 15.869946 34.18449 159.642067 -69.973342 102.397894 -2.616076 29.08153 1.230369 68.985092 -80.153623 40.58036 -0.271461 9.269256 1.665044 -145.120049 0.226796 -179.199063 -151.054261 -32.03715 -173.802775 -143.936663 8.264718 -140.721255 -21.683215 -37.157285 -23.306554 82.877239 68.300621 -86.000654 -128.740875 11.173346 151.095226 3.347998 58.724824 -102.376113 10.739735 -29.060212 7.378859 -1.841926 -1.827318 0.254777 -45.983719 -72.044225 15.555968 129.57719 16.761084 -108.78543 3.502045 19.83329 3.724232 4.106528 11.116019 -2.538919 155.925105 15.610168 -139.90268 -0.005379 1.77132 -0.556905 -10.172126 0.207514 0.040602 110.05484 -41.78367 108.128587 4.84696 -17.71469 8.288736 179.998562 75.749385 0.000984 155.791749 8.712927 -108.620576 -72.805827 -33.2456 -25.033437 -173.848023 39.576395 -122.77342 179.993687 75.748516 0.006514 -139.122535 57.118545 -124.561802 -60.12291 -8.467499 69.640719 44.283058 16.873132 38.712628
6.6659999999999995 67.3694 -1.1466 174.552385 52.059706 177.98695 -8.928225 16.37924 2.177145 9.326038 -10.66064 -1.868031 -17.652634 21.3865 -58.582323 29.500321 2.877844 18.578723 -0.003854 0.0 -0.001553 0.001839 -0.0 -0.000916 3.541988 -62.053066 -13.039054 52.128662 -11.514358 -26.257855 -7.014259 17.222927 90.532546 -19.271061 -62.090951 -20.207618 -103.198865 36.330398 60.111525 -137.335943 -19.57997 75.630333 45.282012 -63.865624 4.306339 17.303965 -0.954541 -4.786986 -160.672347 -6.668077 143.244842 -85.913314 63.860438 77.760812 -73.164437 -72.14235 -90.198179 -150.978012 -0.35785 176.413241 -110.055176 -41.783009 -108.127861 3.32551 0.06424 -1.343523 155.504016 -3.514481 -161.838691 -59.259802 -9.911658 43.042261 155.867699 58.906559 104.477264 8.925204 -34.898366 8.250835 169.149287 -6.830129 -89.917286 -179.32242 -17.021856 -93.046085 151.352076 -17.15856 -121.133506 62.153126 57.359245 -46.047961 170.280231 -36.723248 -145.341739 176.879917 -42.216611 -142.42844 73.163075 -72.141836 90.198438 -14.058671 27.425218 0.920842 -6.225923 18.790134 -5.572065 -2.160819 0.110237 0.016787 -0.001048 -0.001627 0.0 -51.585907 -59.107089 -180.0 -64.141728 -42.225173 -172.32711 72.752589 -85.428033 -24.156991 0.012935 -0.000813 0.012935 16.500353 -7.910439 -180.0 33.241566 -56.007439 134.363204 125.970341 -47.643927 -165.143315
7.6019000000000005 67.3172 -1.1441 172.23665 51.845499 176.652253 -9.151875 15.76803 2.136948 9.675777 -10.786735 -1.28841 3.352009 22.978735 89.211223 -26.612629 4.448645 -130.714772 0.000948 -0.0 -0.004314 0.000359 0.0 0.00136 4.208961 -43.443059 -8.384522 -103.708453 -32.091896 -168.816736 24.164572 -45.039521 -105.195722 -123.377431 42.759362 109.4229 -15.475568 14.198593 4.24835 -35.411262 20.236342 37.491713 12.215615 -21.784884 -5.121933 -4.599237 23.678536 6.247058 2.100605 -6.30527 -1.082385 153.410054 -72.114674 120.859504 0.003764 1.770367 0.556755 -77.52755 78.79698 90.797734 -124.849645 -29.039526 -122.623373 2.746454 -0.897458 -1.914526 157.644381 -66.710591 -175.897346 -89.421343 -7.338751 -21.266359 68.071535 -7.417287 -163.167665 -175.590954 -64.141019 -150.834512 169.975221 -7.657742 -89.937912 91.310762 9.934957 -35.506361 152.465226 -19.226003 -121.473958 79.109099 57.460147 -61.630596 8.416927 20.880268 -5.645887 155.890311 15.601681 -139.893849 69.840263 -72.123896 86.713806 71.946884 83.229002 -89.733919 135.819879 -11.892882 133.18688 -24.11297 60.95803 -5.85741 0.002472 -0.00052 0.003708 -53.243462 -57.599358 -49.04413 -48.034828 73.562009 -100.37327 -157.852221 27.140831 -155.619574 -0.0 0.000329 0.000187 12.943069 -4.593812 101.738614 65.373817 1.145753 88.3652 87.535295 57.657096 156.745938
